<svg xmlns="http://www.w3.org/2000/svg" xmlns:xlink="http://www.w3.org/1999/xlink" viewBox="0 0 546.74 640.45"><defs><style>.cls-1{fill:#3ba3f9;}.cls-2,.cls-8{fill:#2f82df;}.cls-3{fill:url(#linear-gradient);}.cls-4{fill:url(#linear-gradient-2);}.cls-5{fill:url(#linear-gradient-3);}.cls-6{fill:url(#linear-gradient-4);}.cls-7{fill:url(#linear-gradient-5);}.cls-8{stroke:#2f82df;stroke-miterlimit:10;opacity:0.34;}.cls-9{fill:#34a1fc;}.cls-10{fill:#a4e0fe;}.cls-11{fill:#d4f1ff;}</style><linearGradient id="linear-gradient" x1="183.43" y1="381.26" x2="206.94" y2="340.54" gradientUnits="userSpaceOnUse"><stop offset="0" stop-color="#42a5f6"/><stop offset="0.35" stop-color="#41a3f4"/><stop offset="0.54" stop-color="#3d9eec"/><stop offset="0.7" stop-color="#3694de"/><stop offset="0.83" stop-color="#2d87ca"/><stop offset="0.95" stop-color="#2176b1"/><stop offset="1" stop-color="#1b6da5"/></linearGradient><linearGradient id="linear-gradient-2" x1="191.33" y1="439.78" x2="222.58" y2="385.65" gradientUnits="userSpaceOnUse"><stop offset="0" stop-color="#42a5f6"/><stop offset="0.39" stop-color="#41a4f4"/><stop offset="0.58" stop-color="#3d9eec"/><stop offset="0.72" stop-color="#3795df"/><stop offset="0.84" stop-color="#2e89cd"/><stop offset="0.94" stop-color="#2378b5"/><stop offset="1" stop-color="#1b6da5"/></linearGradient><linearGradient id="linear-gradient-3" x1="226.45" y1="514.23" x2="374.93" y2="428.5" gradientUnits="userSpaceOnUse"><stop offset="0.26" stop-color="#3584dc"/><stop offset="0.6" stop-color="#3483da"/><stop offset="0.73" stop-color="#327fd3"/><stop offset="0.81" stop-color="#2e78c8"/><stop offset="0.88" stop-color="#276db7"/><stop offset="0.94" stop-color="#2060a1"/><stop offset="1" stop-color="#165086"/><stop offset="1" stop-color="#154f84"/></linearGradient><linearGradient id="linear-gradient-4" x1="226.45" y1="622.43" x2="257.7" y2="568.31" gradientUnits="userSpaceOnUse"><stop offset="0" stop-color="#42a5f6"/><stop offset="0.47" stop-color="#41a4f4"/><stop offset="0.64" stop-color="#3f9fed"/><stop offset="0.76" stop-color="#3b98e2"/><stop offset="0.86" stop-color="#358dd1"/><stop offset="0.94" stop-color="#2d7fbb"/><stop offset="1" stop-color="#2571a5"/></linearGradient><linearGradient id="linear-gradient-5" x1="253.77" y1="638.21" x2="308.48" y2="543.45" gradientUnits="userSpaceOnUse"><stop offset="0" stop-color="#3584dc"/><stop offset="0.41" stop-color="#3483da"/><stop offset="0.58" stop-color="#327fd3"/><stop offset="0.71" stop-color="#2d77c6"/><stop offset="0.82" stop-color="#276db4"/><stop offset="0.92" stop-color="#1f5f9d"/><stop offset="1" stop-color="#164f82"/></linearGradient></defs><title>Asset 1</title><g id="Layer_2" data-name="Layer 2"><g id="Layer_2-2" data-name="Layer 2"><polygon class="cls-1" points="117.53 270.87 117.53 325 132.95 333.9 132.95 279.54 117.53 270.87"/><polyline class="cls-2" points="132.95 279.54 132.95 333.9 148.37 324.76 148.37 270.63 132.95 279.54"/><polygon class="cls-2" points="273.37 288.68 273.37 396.93 241.81 414.96 242.12 360.84 226.49 369.87 226.49 315.74 273.37 288.68"/><polygon class="cls-1" points="148.37 324.76 226.49 369.87 226.49 315.74 148.37 270.63 148.37 324.76"/><polygon class="cls-3" points="241.81 414.96 132.73 351.83 132.95 333.9 148.37 324.76 226.49 369.87 242.12 360.84 241.81 414.96"/><polygon class="cls-1" points="288.99 297.7 288.99 478.12 273.36 469.1 273.37 288.68 288.99 297.7"/><polygon class="cls-2" points="320.24 279.65 320.24 460.08 288.99 478.12 288.99 297.7 320.24 279.65"/><polygon class="cls-1" points="335.86 288.68 335.86 396.93 320.24 387.91 320.24 279.65 335.86 288.68"/><polygon class="cls-2" points="382.74 261.61 382.74 369.87 335.86 396.93 335.86 288.68 382.74 261.61"/><polygon class="cls-4" points="148.37 360.84 148.37 414.97 257.74 478.12 257.66 405.9 241.81 414.96 148.37 360.84"/><polygon class="cls-2" points="273.36 469.1 257.74 478.12 257.66 405.9 273.37 396.93 273.36 469.1"/><polygon class="cls-1" points="195.24 442.04 195.24 532.24 257.66 568.28 257.74 478.12 195.24 442.04"/><polygon class="cls-5" points="351.49 387.91 351.49 514.2 257.66 568.28 257.74 478.12 273.36 469.1 288.99 478.12 320.24 460.08 320.24 387.91 335.86 396.93 351.49 387.91"/><polygon class="cls-6" points="226.49 550.29 226.49 622.46 257.66 640.45 257.66 568.28 226.49 550.29"/><polygon class="cls-7" points="304.62 541.22 304.57 613.41 257.66 640.45 257.66 568.28 304.62 541.22"/><path class="cls-8" d="M12.5,300.41,230.14,425.8a24,24,0,0,0,23.94,0L534.24,264.32a24,24,0,0,0,0-41.53L316.6,97.13a24,24,0,0,0-24,0L12.49,258.87A24,24,0,0,0,12.5,300.41Z"/><polygon class="cls-9" points="226.49 315.74 242.12 306.72 242.12 270.63 226.49 279.65 226.49 315.74"/><polyline class="cls-10" points="226.49 315.74 195.24 297.7 195.24 261.61 226.49 279.65 226.49 315.74 226.49 315.74"/><polyline class="cls-11" points="242.12 270.63 210.87 252.59 195.24 261.61 226.49 279.65 242.12 270.63"/><polygon class="cls-10" points="132.74 189.44 132.74 261.61 195.24 297.7 195.24 261.61 210.87 252.59 242.12 270.63 242.12 234.55 210.86 216.51 195.24 225.53 132.74 189.44"/><polyline class="cls-9" points="242.12 306.72 273.37 288.68 273.37 216.51 242.12 234.55 242.12 306.72"/><polygon class="cls-9" points="210.87 252.59 210.86 216.51 195.24 225.53 195.24 261.61 210.87 252.59"/><polygon class="cls-10" points="273.37 288.68 288.99 297.7 288.99 171.4 273.36 162.38 273.37 288.68"/><polygon class="cls-9" points="320.24 279.65 288.99 297.7 288.99 171.4 320.24 153.36 320.24 279.65"/><polygon class="cls-11" points="273.36 162.38 304.62 144.34 320.24 153.36 288.99 171.4 273.36 162.38"/><polygon class="cls-10" points="195.24 171.4 195.24 99.23 273.36 144.34 273.37 216.51 195.24 171.4"/><polygon class="cls-11" points="195.24 99.23 242.11 72.17 273.36 90.21 304.61 72.17 351.49 99.23 273.36 144.34 195.24 99.23"/><polygon class="cls-10" points="335.86 288.68 320.24 279.65 320.24 171.4 335.87 180.42 335.86 288.68"/><polygon class="cls-9" points="382.74 153.36 382.74 261.61 335.86 288.68 335.87 180.42 382.74 153.36"/><polygon class="cls-11" points="132.63 243.09 148.37 252.59 132.74 261.61 117.53 252.35 132.63 243.09"/><polygon class="cls-9" points="132.95 279.54 148.37 270.63 148.37 252.59 132.74 261.61 132.95 279.54"/><polygon class="cls-10" points="117.53 252.35 117.53 270.87 132.95 279.54 132.74 261.61 117.53 252.35"/><polygon class="cls-9" points="163.99 171.4 163.99 135.32 195.24 117.28 195.24 171.4 179.62 162.38 163.99 171.4"/><polygon class="cls-10" points="148.37 126.3 148.37 180.42 163.99 171.4 163.99 135.32 148.37 126.3"/><polygon class="cls-11" points="148.37 126.3 195.24 99.23 195.24 117.28 163.99 135.32 148.37 126.3"/><polygon class="cls-9" points="351.49 99.23 273.36 144.34 273.36 162.38 304.62 144.34 320.24 153.36 351.49 135.32 351.49 117.28 351.49 99.23"/><polygon class="cls-11" points="351.49 135.32 367.12 144.34 382.74 135.31 351.49 117.28 351.49 135.32"/><polygon class="cls-9" points="382.74 153.36 382.74 135.31 367.12 144.34 382.74 153.36"/><polygon class="cls-10" points="242.11 72.17 273.36 90.21 273.36 36.08 242.11 18.04 242.11 72.17"/><polyline class="cls-9" points="273.36 90.21 304.62 72.17 304.61 18.04 273.36 36.08 273.36 90.21"/><polygon class="cls-11" points="273.37 0 242.11 18.04 273.36 36.08 304.61 18.04 273.37 0"/><polygon class="cls-11" points="320.24 171.4 335.87 180.42 382.74 153.36 351.49 135.32 320.24 153.36 320.24 171.4"/><polygon class="cls-11" points="132.74 189.44 179.62 162.38 273.37 216.51 242.12 234.55 210.86 216.51 195.24 225.53 132.74 189.44"/></g></g></svg>