<svg xmlns="http://www.w3.org/2000/svg" xmlns:xlink="http://www.w3.org/1999/xlink" viewBox="0 0 400.67 805.58"><defs><style>.cls-1{fill:#fff;}.cls-2{fill:#b8cae1;}.cls-3{fill:url(#linear-gradient);}</style><linearGradient id="linear-gradient" x1="210" y1="324.66" x2="210" y2="805.58" gradientUnits="userSpaceOnUse"><stop offset="0" stop-color="#153d67"/><stop offset="1" stop-color="#040832"/></linearGradient></defs><title>Asset 2</title><g id="Layer_2" data-name="Layer 2"><g id="Layer_1-2" data-name="Layer 1"><polygon class="cls-1" points="20.54 324.66 397.45 324.66 239.22 295.95 200.11 123.5 166.1 238.36 98.77 255.06 20.54 324.66"/><polyline class="cls-2" points="240 299.64 399.12 327.95 276.44 265.44 200.11 123.5"/><polygon class="cls-3" points="19.32 324.66 400.67 324.66 366 543.34 300.22 637.57 270 805.58 237.11 778.02 178.24 797.37 83.37 547.78 50.43 588.68 19.32 324.66"/><rect class="cls-1" x="25.41" y="71.91" width="1.21" height="1.21"/><rect class="cls-1" y="178.31" width="1.92" height="1.92"/><rect class="cls-1" x="126.27" y="104.94" width="1.92" height="1.92"/><rect class="cls-1" x="303.3" y="90.86" width="1.92" height="1.92"/><rect class="cls-1" x="363.45" y="178.31" width="1.92" height="1.92"/><rect class="cls-1" x="181.3" width="1.71" height="1.71"/></g></g></svg>