<svg xmlns="http://www.w3.org/2000/svg" xmlns:xlink="http://www.w3.org/1999/xlink" viewBox="0 0 400.67 807.58"><defs><style>.cls-1{fill:#fff;}.cls-2{fill:#b8cae1;}.cls-3{fill:url(#linear-gradient);}</style><linearGradient id="linear-gradient" x1="210" y1="326.66" x2="210" y2="807.58" gradientUnits="userSpaceOnUse"><stop offset="0" stop-color="#fff" stop-opacity="0.2"/><stop offset="1" stop-color="#fff" stop-opacity="0"/></linearGradient></defs><title>Asset 4</title><g id="Layer_2" data-name="Layer 2"><g id="Layer_1-2" data-name="Layer 1"><polygon class="cls-1" points="19.32 326.66 400.67 326.66 242.44 297.95 203.33 125.5 169.32 240.36 101.99 257.06 19.32 326.66"/><polyline class="cls-2" points="243.22 301.64 400.67 326.66 279.67 267.44 203.33 125.5"/><polygon class="cls-3" points="19.32 326.66 400.67 326.66 366 545.34 300.22 639.57 270 807.58 237.11 780.02 178.24 799.37 83.37 549.78 50.43 590.68 19.32 326.66"/><rect class="cls-1" x="25.41" y="71.91" width="1.21" height="1.21"/><rect class="cls-1" y="178.31" width="1.92" height="1.92"/><rect class="cls-1" x="126.27" y="104.94" width="1.92" height="1.92"/><rect class="cls-1" x="303.3" y="90.86" width="1.92" height="1.92"/><rect class="cls-1" x="363.45" y="178.31" width="1.92" height="1.92"/><rect class="cls-1" x="181.3" width="1.71" height="1.71"/></g></g></svg>