<svg xmlns="http://www.w3.org/2000/svg" viewBox="0 0 189.3 438.66"><defs><style>.cls-1,.cls-3{fill:#333;}.cls-1,.cls-4{stroke:#333;stroke-width:3px;}.cls-1,.cls-4,.cls-5{stroke-miterlimit:10;}.cls-2{fill:#fff;}.cls-4,.cls-5{fill:none;}.cls-5{stroke:#fff;}</style></defs><title>Asset 3</title><g id="Layer_2" data-name="Layer 2"><g id="Layer_1-2" data-name="Layer 1"><path class="cls-1" d="M187.8,312.32a38.94,38.94,0,0,0-23.32-35.45,35.55,35.55,0,0,0,2.41-13.06c0-15.37-9.25-27.83-20.67-27.83a16,16,0,0,0-6.95,1.62,31.69,31.69,0,0,0,.19-3.4c0-11.76-6.62-21.5-15.29-23.34,7.13-6.92,11.71-17.66,11.71-29.74,0-13.4-5.64-25.16-14.14-31.87a13.71,13.71,0,0,0,.81-4.64,14,14,0,0,0-27.9,0c0,.38,0,.75.06,1.12C83.79,150.78,75.83,163.34,75,178.34h-.09c-9.55,0-17.29,13.53-17.29,30.22a51,51,0,0,0,.59,7.84,9.37,9.37,0,0,0-5-1.48c-6.16,0-11.29,6.42-12.47,15a13.38,13.38,0,0,0-4-.63c-9.64,0-17.46,10.5-17.46,23.45A30.41,30.41,0,0,0,20.64,262C9.91,263.28,1.5,275.53,1.5,290.45c0,12.63,6,23.34,14.37,27.14A55.15,55.15,0,0,0,13,335.18a52.27,52.27,0,0,0,11.38,33.19,32.27,32.27,0,0,0-5,17.5c0,16.47,11.84,29.82,26.45,29.82a24.24,24.24,0,0,0,14.49-4.88c3.5,15.39,12.52,26.35,23.09,26.35,9.33,0,17.44-8.52,21.63-21.08a15.5,15.5,0,0,0,8.19,2.39c11.2,0,20.28-12.54,20.28-28v-.05c.57,0,1.15.05,1.74.05a31.67,31.67,0,0,0,29.61-42.85A38.91,38.91,0,0,0,187.8,312.32Z"/><path class="cls-2" d="M52.23,272c-.16-2.44-.16-3.12-1.9-4.71-.64-.56-.66-.85-.66-1.24s.1-.68.63-1.48a8.24,8.24,0,0,0,1.69-5.9c0-2.78-.11-3.74,0-7.83,0-2.27-.82-6-2.67-6.07-2.45-.06-8-.34-10-.17-1.85.17-4.83.05-6.28.17s-2.19,1.87-2.27,6.24-.27,10.89-.21,13.16.18,14.08.13,17.76.9,5.22,2.48,5.39a27.3,27.3,0,0,0,5.76.17c2-.28,9,.29,11.08-.17,1.48-.34,2.14-1.76,2.11-4.82S52.33,273.72,52.23,272Zm-11.7-15.71a9.15,9.15,0,0,1,1.8.05c.55,0,.84.85.87,1.54s0,1.41,0,2.09a3.24,3.24,0,0,1-.44,1.82l-.82.79a1.49,1.49,0,0,1-1.22.57c-.6,0-1-.05-1-1.3,0-.8-.05-2.73-.05-3.75C39.69,256.87,40,256.36,40.53,256.25Zm2.62,18c0,.91-.48,1.53-1,1.53s-1.43.06-1.9.06-.64-.8-.66-1.36,0-2.56,0-3.58c0-1.59.37-1.93.85-1.93.66,0,1-.05,1.32.29l.79.73a2.52,2.52,0,0,1,.68,1.76C43.28,272.59,43.15,273.38,43.15,274.29Z"/><path class="cls-2" d="M69.44,244.73c1.32,0,2.8,1.7,2.8,8.23,0,.85.16,2,.16,2.83,0,1.14-.45,2.16-.85,2.16a19,19,0,0,0-3.56.23c-.4,0-2.46.11-2.77.11s-.53.51-.53,1.3.37,1.14.79,1.14,2.32.06,2.64.06,2.09-.17,2.43-.17c.63,0,1.53.17,1.53,2.21,0,.68.11,1.47.11,2.15s-.06,2.5-.06,3.47c0,2.44-.58,3.17-2.56,3.17a44.13,44.13,0,0,0-4.49.34c-.39,0-.5.8-.5,1.42s.37,1.08.64,1.08,1.9-.23,2.82-.17a17,17,0,0,0,3.43,0c.64-.11,1,1.19,1,2.21,0,.85-.14,1.71-.14,2.84,0,4.54,0,7.94-2.24,7.94-1.19,0-5.41.23-6.39.23s-5.88-.23-7.34-.23-2.53-2.44-2.53-5.1-.13-13.45-.13-16.57.21-9.53.21-13.79,1-7.09,2.06-7.09,4.62-.23,5.81-.23C63.37,244.5,65.61,244.73,69.44,244.73Z"/><path class="cls-2" d="M82.17,244.73c.92-.17,2.06,2.27,2.06,4.54,0,3.8-.32,8.34-.32,11.74,0,1.25-.16,5.34-.16,6.7S84,270,84.67,270a3,3,0,0,0,1.43-.74,2.85,2.85,0,0,1,1.74-.68c.79,0,1.51,1.7,1.59,3.12,0,1.14,0,4.77.13,6,.13,1.42-.13,5.16-.13,6.52S88.77,287,88,287.23s-5-.12-5.94,0a38.81,38.81,0,0,1-6.36,0c-1.19-.06-1.9-2.73-1.87-5.85s-.13-16.28,0-18.66,0-8.74.13-12.6S75,244.84,76,244.73,80.85,245,82.17,244.73Z"/><path class="cls-2" d="M112.21,251c0-3.4-1.06-6.24-2.38-6.24-1.71,0-4.22-.29-9-.29-1.72,0-3.83.29-8.18.29-1.06,0-2.09,2.84-2.09,7.37,0,2.56-.16,6.81-.16,9.65,0,2,0,3.75,0,20.43,0,2.83,1,5.1,2.51,5.1.64,0,5.89.51,8,.12,1.32-.23,7.21.28,9.5-.12,1.46-.22,1.85-3.12,1.85-5.95,0-9.65.13-10.78.13-15C112.47,264.59,112.21,257.49,112.21,251ZM104,270a1.55,1.55,0,0,1-.9,1.42,10.23,10.23,0,0,1-2.64.22c-.58-.05-.95-1-1-1.93s-.16-3.91,0-5.67a1.84,1.84,0,0,1,.92-1.65,5.55,5.55,0,0,1,2.9-.05c.4.11.77,1.47.8,2s0,1.59,0,2.27S104,269,104,270Z"/><path class="cls-2" d="M118.1,244.73a17,17,0,0,0,3.43-.12c.61-.11,1.06.8,1.06,1.82s.13,1.7.13,2.84c0,1.36.18,3.12.26,4.25s.14,1.59.4,1.71.45,0,.53-2c0-1.14.5-4.88.66-6.13s1-2.38,1.58-2.27a13.23,13.23,0,0,0,3-.23c.63-.11,1.34,1,1.58,2.16a46.68,46.68,0,0,1,.66,6.47c.13,2,.21,2.27.53,2s.34-.57.39-1.42c.14-1.71.27-3.41.27-5.11,0-.85.13-1.42.13-2.27s.26-1.59.92-1.7,2.67.06,3.57-.17,3.3.28,3.83.17,1.18,1.08,1.18,2c0,1.14-.26,3.13-.26,4.83,0,2.27-.26,10.1-.53,14.18-.29,4.54-.66,12.49-.79,14.47s-.26,2.84-.4,4.54c-.08,1.14-.66,2.72-1.32,2.72s-2.77-.51-3.82-.22-3.7,0-4.36.17-1-1-1.06-1.82c-.13-1.13-.37-2-.52-2.89-.43-2.5-.66-4.2-.74-5.22-.06-.8-.19-1.25-.45-1.25s-.4.28-.53,1.42-.37,3.29-.61,4.65c-.29,1.76-.45,2.16-.58,3.29s-.53,1.7-1,1.82-3.17-.12-4-.12-4.36,0-5,.12-1-1.53-1-2.39c0-1.13-.22-1.41-.27-3.4-.13-4.26-.45-7.66-.66-11.35-.53-9.64-.66-15.6-.79-18.72-.11-2.27-.26-3.41-.26-4.83s.52-1.92,1.32-2A35.12,35.12,0,0,1,118.1,244.73Z"/><path class="cls-2" d="M54.33,313.49c.06-.68.38-1.87.38-2.28s-.26-.83-.57-.83c-.79,0-1.89,1.1-2.68,1.33s-1.51,1.1-2.74,1.1c-.56,0-1-.74-1-1.83,0-5.26.41-10.75.41-12.35,0-.68.32-3.65.35-4.34a1.6,1.6,0,0,1,1.42-1.51c.47,0,1.54.05,2.58.09s2.11.1,2.55.1,1.83-.05,3.15-.1,2.58,0,2.87,0h2.07c.89,0,1.8.09,2.24.09.91,0,4.66-.14,5.61-.14s1.54,1.05,1.54,2c0,1.6.47,5,.47,8.23,0,.91.25,4.71.25,8,0,.69-.69,1.79-1.26,1.79-1.1,0-1.89-.69-2.67-.92-1-.27-2.05-1.51-2.68-1.51-.32,0-.6.41-.6.83,0,.68.35,1.6.41,2.33s.88,6.17,1,7.72c.09,1.74.63,3.25.63,4.3,0,.68-.6,1.6-1.17,1.64-2.3.23-5.76-.13-6.55,0a39.68,39.68,0,0,1-6.39,0c-.51,0-1-.82-1-1.64s.44-2.38.5-4.07S54.27,314.18,54.33,313.49Z"/><path class="cls-2" d="M80.9,292.92a39.46,39.46,0,0,1,4.07,0c1,.14,1.54,1.37,1.54,3,0,.69-.16,1.78-.16,3.89,0,1.37.16,1.73,1.42,1.73,1.42,0,1.58-.36,1.58-2.1,0-.59-.1-3.75-.1-4.66a1.82,1.82,0,0,1,1.89-2c1.35,0,6.17.19,8,.14s1.92,1.14,2.14,3.43c.16,1.51.06,13,.19,14.17.22,2.06,0,11.61,0,12.8.16,3.15-.63,3.88-2.2,3.93-1.3.05-3.31,0-3.85-.05s-4.25.1-5,.1-1.33-1.24-1.33-2.15.07-3.66.07-4.57c0-1.6-.79-1.79-2-1.79-.63,0-1,.42-1,2.06,0,.69.07,2.83.07,4.53a2,2,0,0,1-2.21,2c-.31,0-1.16-.05-2-.09s-1.7-.1-2.05-.1l-3.75.05c-1.57-.05-1.82-1.42-1.86-4.39,0-1.42-.25-12.11-.15-14,.09-1.74.15-10.33.09-12.71-.06-2.7,1-3.2,2.61-3.29C77.6,292.78,79.87,292.92,80.9,292.92Z"/><path class="cls-2" d="M122.09,292.92c1.58,0,3.34,1.37,3.34,6.63,0,.68.19,1.6.19,2.28,0,.92-.53,1.74-1,1.74a34.49,34.49,0,0,0-4.25.18c-.47,0-2.93.1-3.31.1s-.63.41-.63,1a.89.89,0,0,0,1,.91l3.15.05c.38,0,2.49-.14,2.9-.14.75,0,1.82.14,1.82,1.78,0,.55.13,1.19.13,1.74s-.06,2-.06,2.79c0,2-.7,2.56-3.06,2.56-3.46,0-4.09.27-5.35.27-.48,0-.6.64-.6,1.15a.91.91,0,0,0,.75.86c.48,0,2.27-.18,3.37-.13a32.75,32.75,0,0,0,4.1,0c.75-.09,1.2,1,1.2,1.78s-.16,1.37-.16,2.28c0,3.66,0,6.4-2.68,6.4-1.42,0-6.46.19-7.62.19s-7-.19-8.76-.19-3-2-3-4.11-.16-10.83-.16-13.35.25-7.68.25-11.11,1.2-5.71,2.46-5.71,5.51-.18,6.93-.18C114.85,292.74,117.53,292.92,122.09,292.92Z"/><path class="cls-2" d="M60.45,357.05c-.18-2.19-.18-2.81-2.09-4.24-.7-.51-.73-.76-.73-1.12s.12-.61.7-1.33a6.48,6.48,0,0,0,1.86-5.31c0-2.5-.12-3.37,0-7,.05-2-.9-5.41-2.94-5.46-2.69-.05-8.79-.31-11-.16-2,.16-5.32.05-6.91.16s-2.41,1.68-2.5,5.61-.29,9.8-.23,11.85.2,12.66.15,16,1,4.7,2.72,4.85a36.62,36.62,0,0,0,6.33.16c2.24-.26,9.87.25,12.19-.16,1.62-.3,2.35-1.58,2.32-4.33S60.56,358.63,60.45,357.05ZM47.59,342.91a13.16,13.16,0,0,1,2,0c.61,0,.93.77,1,1.38s.06,1.28,0,1.89a2.5,2.5,0,0,1-.49,1.63l-.9.72a1.84,1.84,0,0,1-1.34.51c-.67,0-1.07,0-1.1-1.18,0-.71-.06-2.45-.06-3.37C46.66,343.47,47,343,47.59,342.91Zm2.87,16.23a1.25,1.25,0,0,1-1.07,1.38c-.41,0-1.57.05-2.09.05s-.7-.71-.73-1.22,0-2.3,0-3.22c0-1.43.4-1.73.92-1.73.73,0,1.08,0,1.46.25l.87.66a2.09,2.09,0,0,1,.75,1.59C50.61,357.61,50.46,358.33,50.46,359.14Z"/><path class="cls-2" d="M79.37,332.55c1.45,0,3.07,1.53,3.07,7.4,0,.77.18,1.79.18,2.55,0,1-.49,1.94-.93,1.94a25.36,25.36,0,0,0-3.92.21c-.43,0-2.7.1-3,.1s-.58.46-.58,1.17a.9.9,0,0,0,.88,1l2.9.05c.35,0,2.29-.15,2.67-.15.69,0,1.68.15,1.68,2,0,.61.12,1.33.12,1.94s-.06,2.25-.06,3.12c0,2.19-.64,2.85-2.82,2.85-3.19,0-3.77.31-4.93.31-.44,0-.55.72-.55,1.28s.4,1,.69,1c.44,0,2.09-.21,3.11-.16a21.42,21.42,0,0,0,3.77,0c.7-.1,1.11,1.08,1.11,2,0,.76-.15,1.53-.15,2.55,0,4.08,0,7.14-2.47,7.14-1.3,0-6,.21-7,.21s-6.47-.21-8.07-.21-2.78-2.19-2.78-4.59-.15-12.1-.15-14.91.23-8.57.23-12.4,1.11-6.38,2.27-6.38,5.08-.21,6.38-.21C72.69,332.34,75.16,332.55,79.37,332.55Z"/><path class="cls-2" d="M106.94,359.09c-.44-1.83-1-1.53-1-2.55s.52-1.63,1.45-2.81c.81-1,1-2.81.93-4.85-.09-1.43-.23-8.42-.2-10.16.06-4.13-1.13-6.12-2.67-6.28s-6.1.11-10.16-.05c-1.63-.05-7.31.16-8.56.16-1,0-2.41,1.58-2.41,4.44s-.17,11.23-.17,13,0,14,0,14.95-.11,2.66-.11,3.58a2.33,2.33,0,0,0,1.83,2.35c.69,0,2.87-.06,3.57-.06.34,0,1.45.06,2.55.06s2.18.1,2.5.1c.63,0,1-.87,1-2.15s-.2-1.48-.2-3.31c0-.82.17-.92.44-1.13.49-.36.66,0,1,.82.9,2.5,1.19,2.91,1.28,4.34a1.36,1.36,0,0,0,1.57,1.38c.55,0,1.39-.05,2.26-.11s1.71-.05,2.23-.05,1.48.05,2.27.05,1.48.11,1.8.11c.81,0,1.25-1.13,1.25-2.15C109.41,365.73,108.16,364.35,106.94,359.09ZM98.87,352a2,2,0,0,1-.78,1.27c-.73.51-1.89,1.53-2.88,1.53-.63,0-1.13-.76-1.22-1.53a39.27,39.27,0,0,1,0-4.34c0-.61.56-1.53,1.34-1.48s1.54.21,2.32.21A1.46,1.46,0,0,1,99,349.14,18,18,0,0,1,98.87,352Z"/><path class="cls-2" d="M122.47,332.34c1.45-.2,6.67.26,8.27.21,2.32-.05,3.57,2.55,3.57,8.93,0,1.53.2,2.3.23,3.32a1.69,1.69,0,0,1-1,1.79c-1.3.51-3.8,1.94-4.64,2.29-1.16.51-3.16,2-4,2-.47,0-.61-.25-.76-1-.09-.51-.29-.51-.72-.51s-1,.16-1.6.16c-.44,0-.67.35-.67,3.42,0,1.78.23,2.29,1.25,2.29,1.89,0,2-.56,1.94-1.53s.24-1.53.82-1.53a40.08,40.08,0,0,1,4.06-.25,15.8,15.8,0,0,0,4.35,0c.87-.21,1.31.76,1.31,2.29,0,1.13-.23,1.79-.23,2.81,0,1.79.2,5.31,0,9.75-.12,2.91-1.31,3.93-2.18,4-1.07.16-5.46-.1-6.47.11-.58.1-1.16-.62-1.31-1.38s-1-.77-3.48.51a5,5,0,0,1-3.19.76c-1.45-.1-2.76.21-4.79,0s-2.7-2.8-2.7-5.1c0-5.11-.17-13-.17-15.32s.17-10.46.17-12.76c0-2,1.25-5,2.7-5.1C115.35,332.44,120.43,332.6,122.47,332.34Z"/><path class="cls-3" d="M90.66,145.61c14.63.52,28.34-3,38.48-10.91s16.62-20.33,16.72-37.24c.1-17.39-11.22-27.7-18.72-39.53s-8.85-23.4-4.21-41.74a.94.94,0,1,0-1.8-.45c-4.52,18.65-3.37,31,4.41,43.24S144.05,80.89,144,97.46s-6.27,28.15-16,35.74-23,11-37.28,10.5-26.91-5.23-35.89-13.26-14.32-19.32-14-33.08c.06-2.34,1-4.69,1.75-7.1s1.23-5,0-7.51c-2.13-4.4-5.31-8.89-7.7-12.76a32.43,32.43,0,0,1-2.76-5.21,5,5,0,0,1-.35-3.45c.48-1.14,1-1.55,1.65-1.75a6.09,6.09,0,0,1,2.61.05,23.32,23.32,0,0,0,3.1.5,3.64,3.64,0,0,0,3.1-1.2,3.79,3.79,0,0,0,.75-2.6,9.86,9.86,0,0,0-.5-2.46c-.23-.77-.48-1.55-.6-2.15A2,2,0,0,1,42,50.47c.11-.21.23-.28.6-.35a6.2,6.2,0,0,1,1.5,0,8.38,8.38,0,0,0,1.81.05,1.78,1.78,0,0,0,1-.4,1.63,1.63,0,0,0,.45-1.2,2.64,2.64,0,0,0-1.25-2,18.28,18.28,0,0,0-1.81-1.1,5.4,5.4,0,0,1-1-.75c0-.06,0,0-.05,0s.05-.08.2-.25a14.38,14.38,0,0,0,3.56-5.81,9.22,9.22,0,0,0,0-4.35A13,13,0,0,1,46.47,31a6.67,6.67,0,0,1,1.7-3.85,5.54,5.54,0,0,1,4.4-2.4,14.68,14.68,0,0,1,5.26,1.05,33.2,33.2,0,0,0,5.6,1.7A5.84,5.84,0,0,0,68.69,26c2.07-2.09,2.52-5.61,2.7-9.76s0-9,.4-13.66a1,1,0,1,0-1.9-.15c-.39,4.79-.23,9.67-.4,13.71s-.81,7.2-2.16,8.56c-1,1-2.07,1.13-3.6.9A35.94,35.94,0,0,1,58.48,24a16.26,16.26,0,0,0-6-1.15A7.72,7.72,0,0,0,46.67,26a8.81,8.81,0,0,0-2.11,4.9,13.72,13.72,0,0,0,.51,3.81,7.26,7.26,0,0,1,0,3.5A12.45,12.45,0,0,1,42,43.21a2.51,2.51,0,0,0-.65,1.26,1.87,1.87,0,0,0,.3,1.25,4.72,4.72,0,0,0,1.7,1.4,18.67,18.67,0,0,1,1.65,1c.16.11.26.16.16.2s-.47,0-.86,0a7.4,7.4,0,0,0-2,0,2.67,2.67,0,0,0-2,1.35,3.79,3.79,0,0,0-.2,2.45,23.76,23.76,0,0,0,.65,2.35,8.52,8.52,0,0,1,.45,2,1.85,1.85,0,0,1-.4,1.35c-.35.43-.73.53-1.5.5a27.31,27.31,0,0,1-2.9-.5,7.15,7.15,0,0,0-3.41,0,4.63,4.63,0,0,0-2.9,2.8,6.61,6.61,0,0,0,.3,4.85A33.38,33.38,0,0,0,33.3,71c2.45,4,5.59,8.38,7.61,12.56.92,1.91.59,3.86-.1,6.16s-1.73,4.81-1.8,7.6c-.37,14.28,5.21,26.17,14.56,34.53S76,145.09,90.66,145.61Z"/><path class="cls-4" d="M90.66,145.61c14.63.52,28.34-3,38.48-10.91s16.62-20.33,16.72-37.24c.1-17.39-11.22-27.7-18.72-39.53s-8.85-23.4-4.21-41.74a.94.94,0,1,0-1.8-.45c-4.52,18.65-3.37,31,4.41,43.24S144.05,80.89,144,97.46s-6.27,28.15-16,35.74-23,11-37.28,10.5-26.91-5.23-35.89-13.26-14.32-19.32-14-33.08c.06-2.34,1-4.69,1.75-7.1s1.23-5,0-7.51c-2.13-4.4-5.31-8.89-7.7-12.76a32.43,32.43,0,0,1-2.76-5.21,5,5,0,0,1-.35-3.45c.48-1.14,1-1.55,1.65-1.75a6.09,6.09,0,0,1,2.61.05,23.32,23.32,0,0,0,3.1.5,3.64,3.64,0,0,0,3.1-1.2,3.79,3.79,0,0,0,.75-2.6,9.86,9.86,0,0,0-.5-2.46c-.23-.77-.48-1.55-.6-2.15A2,2,0,0,1,42,50.47c.11-.21.23-.28.6-.35a6.2,6.2,0,0,1,1.5,0,8.38,8.38,0,0,0,1.81.05,1.78,1.78,0,0,0,1-.4,1.63,1.63,0,0,0,.45-1.2,2.64,2.64,0,0,0-1.25-2,18.28,18.28,0,0,0-1.81-1.1,5.4,5.4,0,0,1-1-.75c0-.06,0,0-.05,0s.05-.08.2-.25a14.38,14.38,0,0,0,3.56-5.81,9.22,9.22,0,0,0,0-4.35A13,13,0,0,1,46.47,31a6.67,6.67,0,0,1,1.7-3.85,5.54,5.54,0,0,1,4.4-2.4,14.68,14.68,0,0,1,5.26,1.05,33.2,33.2,0,0,0,5.6,1.7A5.84,5.84,0,0,0,68.69,26c2.07-2.09,2.52-5.61,2.7-9.76s0-9,.4-13.66a1,1,0,1,0-1.9-.15c-.39,4.79-.23,9.67-.4,13.71s-.81,7.2-2.16,8.56c-1,1-2.07,1.13-3.6.9A35.94,35.94,0,0,1,58.48,24a16.26,16.26,0,0,0-6-1.15A7.72,7.72,0,0,0,46.67,26a8.81,8.81,0,0,0-2.11,4.9,13.72,13.72,0,0,0,.51,3.81,7.26,7.26,0,0,1,0,3.5A12.45,12.45,0,0,1,42,43.21a2.51,2.51,0,0,0-.65,1.26,1.87,1.87,0,0,0,.3,1.25,4.72,4.72,0,0,0,1.7,1.4,18.67,18.67,0,0,1,1.65,1c.16.11.26.16.16.2s-.47,0-.86,0a7.4,7.4,0,0,0-2,0,2.67,2.67,0,0,0-2,1.35,3.79,3.79,0,0,0-.2,2.45,23.76,23.76,0,0,0,.65,2.35,8.52,8.52,0,0,1,.45,2,1.85,1.85,0,0,1-.4,1.35c-.35.43-.73.53-1.5.5a27.31,27.31,0,0,1-2.9-.5,7.15,7.15,0,0,0-3.41,0,4.63,4.63,0,0,0-2.9,2.8,6.61,6.61,0,0,0,.3,4.85A33.38,33.38,0,0,0,33.3,71c2.45,4,5.59,8.38,7.61,12.56.92,1.91.59,3.86-.1,6.16s-1.73,4.81-1.8,7.6c-.37,14.28,5.21,26.17,14.56,34.53S76,145.09,90.66,145.61Z"/><path class="cls-5" d="M93.48,146.66c-1,0-1.9,0-2.86,0-14.8-.53-28.19-5.51-37.71-14A44.92,44.92,0,0,1,38,97.29a22.4,22.4,0,0,1,1.38-6.42c.16-.49.32-1,.46-1.45.66-2.2.92-3.87.16-5.43a86.73,86.73,0,0,0-5.3-8.93c-.78-1.21-1.55-2.4-2.26-3.54a34.47,34.47,0,0,1-3-5.74,7.46,7.46,0,0,1-.28-5.58,5.58,5.58,0,0,1,3.54-3.38,6.1,6.1,0,0,1,1.79-.25,12.16,12.16,0,0,1,2.07.22l1,.21a13.7,13.7,0,0,0,1.72.28h.21c.37,0,.39,0,.47-.13a.86.86,0,0,0,.18-.68,7.8,7.8,0,0,0-.41-1.75l-.12-.41a17,17,0,0,1-.55-2.05,4.77,4.77,0,0,1,.28-3.08,3.62,3.62,0,0,1,2.44-1.85,4.05,4.05,0,0,1-1-1.07,2.85,2.85,0,0,1-.45-1.93,3.43,3.43,0,0,1,.9-1.79A11.67,11.67,0,0,0,44.1,37.9a6,6,0,0,0,0-3c0-.2-.08-.4-.13-.61a11.75,11.75,0,0,1-.38-3.46,9.78,9.78,0,0,1,2.31-5.46,8.73,8.73,0,0,1,6.54-3.53h.51A18.28,18.28,0,0,1,58.8,23l1.07.37a25,25,0,0,0,4,1.19,6.93,6.93,0,0,0,1,.09,2.21,2.21,0,0,0,1.74-.71c.72-.73,1.63-2.69,1.86-7.89.06-1.55.08-3.21.1-5,0-2.85.06-5.8.3-8.77a2,2,0,0,1,2-1.8H71a1.93,1.93,0,0,1,1.32.69,2,2,0,0,1,.48,1.41c-.23,2.79-.26,5.66-.29,8.43,0,1.83,0,3.55-.11,5.19-.17,3.92-.54,8-3,10.42a6.52,6.52,0,0,1-4.75,1.9,9.35,9.35,0,0,1-1.37-.11,25.69,25.69,0,0,1-4.63-1.34l-1.15-.41a15.25,15.25,0,0,0-4.58-1h-.3a4.56,4.56,0,0,0-3.67,2A5.69,5.69,0,0,0,47.46,31a10.34,10.34,0,0,0,.34,2.61l.1.48a10.12,10.12,0,0,1,0,4.81,14.37,14.37,0,0,1-3.24,5.61l.55.31a14.56,14.56,0,0,1,1.47.92,3.66,3.66,0,0,1,1.66,2.78,2.56,2.56,0,0,1-.79,2,2.67,2.67,0,0,1-1.54.64,5.49,5.49,0,0,1-.7.05c-.38,0-.75,0-1.12-.07l-.2,0a7.15,7.15,0,0,0-.78,0h-.35a3.74,3.74,0,0,0,0,.45c.09.45.27,1.05.47,1.68l.11.36a10.51,10.51,0,0,1,.54,2.7,4.69,4.69,0,0,1-1,3.27,4.52,4.52,0,0,1-3.65,1.58h-.27a15.57,15.57,0,0,1-2.44-.36l-.8-.16a8.68,8.68,0,0,0-1.45-.15,2.56,2.56,0,0,0-.69.08c-.25.07-.6.17-1,1.18-.13.3-.25,1.06.36,2.72a31.53,31.53,0,0,0,2.67,5c.67,1.09,1.4,2.22,2.15,3.39a89.61,89.61,0,0,1,5.6,9.46c1.37,2.84.84,5.63.06,8.23-.17.56-.34,1.11-.52,1.65a18.94,18.94,0,0,0-1.19,5.2c-.34,12.86,4.38,24,13.63,32.31,8.83,7.89,21.35,12.51,35.25,13,.91,0,1.81,0,2.71,0,13.55,0,25.28-3.57,33.92-10.34,10.25-8,15.5-19.79,15.58-34.95.07-12.37-6-20.77-12.5-29.66-1.94-2.67-3.94-5.43-5.76-8.29-7.81-12.31-9.12-25.06-4.53-44a2.08,2.08,0,0,1,2-1.64,2.12,2.12,0,0,1,.44.05,1.83,1.83,0,0,1,1.12.85,2.22,2.22,0,0,1,.23,1.68c-4.49,17.75-3.35,29.24,4.08,41,1.7,2.68,3.56,5.23,5.53,7.93,6.6,9.05,13.42,18.4,13.34,32.15-.09,16.18-6,29.33-17.09,38-9.34,7.31-21.89,11.18-36.28,11.18Z"/><path class="cls-3" d="M126.38,78.6c-8.71-8.62-19.51.89-24.12,5.3C96.17,89.73,88.68,93,76.93,92.41,68,91.93,58.58,93.6,54.81,103.73c-3,8,3.73,24.35,23.57,29.26,25.64,6.35,40.16-3,48.5-12.71S137.81,89.91,126.38,78.6Z"/></g></g></svg>