<svg xmlns="http://www.w3.org/2000/svg" xmlns:xlink="http://www.w3.org/1999/xlink" viewBox="0 0 1000 1000"><defs><style>.cls-1{fill:url(#linear-gradient);}.cls-2{fill:url(#linear-gradient-2);}.cls-3{fill:#fff;}.cls-4{fill:#b8cae1;}.cls-5{fill:url(#linear-gradient-3);}.cls-6{fill:#040832;}</style><linearGradient id="linear-gradient" x1="500" y1="500" x2="500" y2="1000" gradientUnits="userSpaceOnUse"><stop offset="0" stop-color="#022551"/><stop offset="1" stop-color="#040832"/></linearGradient><linearGradient id="linear-gradient-2" x1="500" y1="500" x2="500" gradientUnits="userSpaceOnUse"><stop offset="0" stop-color="#003965"/><stop offset="1" stop-color="#040832"/></linearGradient><linearGradient id="linear-gradient-3" x1="500.52" y1="498.35" x2="500.52" y2="979.27" gradientUnits="userSpaceOnUse"><stop offset="0" stop-color="#153d67"/><stop offset="1" stop-color="#040832"/></linearGradient></defs><title>Asset 1</title><g id="Layer_2" data-name="Layer 2"><g id="Layer_1-2" data-name="Layer 1"><rect class="cls-1" y="500" width="1000" height="500"/><rect class="cls-2" width="1000" height="500"/><polygon class="cls-3" points="311.07 498.35 687.98 498.35 529.75 469.64 490.63 297.19 456.63 412.05 389.29 428.75 311.07 498.35"/><polyline class="cls-4" points="530.52 473.33 689.64 501.65 566.97 439.13 490.63 297.19"/><polygon class="cls-5" points="309.85 498.35 691.2 498.35 656.53 717.03 590.75 811.26 560.52 979.27 527.63 951.71 468.77 971.06 373.89 721.48 340.96 762.37 309.85 498.35"/><rect class="cls-3" x="315.94" y="245.6" width="1.21" height="1.21"/><rect class="cls-3" x="290.53" y="352.01" width="1.92" height="1.92"/><rect class="cls-3" x="416.8" y="278.63" width="1.92" height="1.92"/><rect class="cls-3" x="593.83" y="264.56" width="1.92" height="1.92"/><rect class="cls-3" x="653.98" y="352.01" width="1.92" height="1.92"/><rect class="cls-3" x="471.83" y="173.69" width="1.71" height="1.71"/><path class="cls-6" d="M0,0V1000H1000V0ZM500,932.2c-167.79,0-303.82-193.5-303.82-432.2S332.21,67.8,500,67.8,803.82,261.3,803.82,500,667.79,932.2,500,932.2Z"/></g></g></svg>